<svg id="visual" viewBox="0 0 960 540" width="960" height="540" xmlns="http://www.w3.org/2000/svg" xmlns:xlink="http://www.w3.org/1999/xlink" version="1.1"><rect x="0" y="0" width="960" height="540" fill="#FFFFFF"></rect><g transform="translate(-5.45232395055379 4.73242586687789)"><path d="M186.8 -249.5C251 -210.5 318.1 -167.8 336.7 -109.6C355.4 -51.4 325.6 22.4 292.9 86.6C260.3 150.9 224.8 205.7 175.5 248.9C126.2 292 63.1 323.5 -0.4 324C-63.9 324.6 -127.7 294.2 -175.9 250.6C-224 207.1 -256.5 150.5 -285.6 86.7C-314.6 22.9 -340.4 -48 -328.7 -113.8C-317 -179.6 -267.8 -240.3 -206.8 -280.3C-145.8 -320.3 -72.9 -339.7 -5.8 -331.7C61.3 -323.7 122.7 -288.5 186.8 -249.5" fill="#cbedca"></path></g></svg>