<svg width="200" height="334" viewBox="0 0 200 334" fill="none" xmlns="http://www.w3.org/2000/svg">
<circle cx="100" cy="234" r="99.5" fill="white" stroke="#0D3DB0" stroke-dasharray="13 13"/>
<path d="M188 234.5C188 282.825 148.825 322 100.5 322C52.1751 322 13 282.825 13 234.5C13 186.175 52.1751 147 100.5 147C148.825 147 188 186.175 188 234.5ZM16.1926 234.5C16.1926 281.062 53.9383 318.807 100.5 318.807C147.062 318.807 184.807 281.062 184.807 234.5C184.807 187.938 147.062 150.193 100.5 150.193C53.9383 150.193 16.1926 187.938 16.1926 234.5Z" fill="url(#paint0_linear_220_28)"/>
<path d="M175 234C175 275.421 141.421 309 100 309C58.5786 309 25 275.421 25 234C25 192.579 58.5786 159 100 159C141.421 159 175 192.579 175 234ZM35.5944 234C35.5944 269.57 64.4298 298.406 100 298.406C135.57 298.406 164.406 269.57 164.406 234C164.406 198.43 135.57 169.594 100 169.594C64.4298 169.594 35.5944 198.43 35.5944 234Z" fill="url(#paint1_linear_220_28)"/>
<path d="M138 234.5C138 255.211 121.211 272 100.5 272C79.7893 272 63 255.211 63 234.5C63 213.789 79.7893 197 100.5 197C121.211 197 138 213.789 138 234.5ZM66.8422 234.5C66.8422 253.089 81.9113 268.158 100.5 268.158C119.089 268.158 134.158 253.089 134.158 234.5C134.158 215.911 119.089 200.842 100.5 200.842C81.9113 200.842 66.8422 215.911 66.8422 234.5Z" fill="url(#paint2_linear_220_28)"/>
<path d="M105.8 223.8L106.243 223.134L106.042 223H105.8V223.8ZM110.6 227H111.4V226.571L111.043 226.334L110.6 227ZM109 242.2H96.2V243.8H109V242.2ZM95.4 241.4V225.4H93.8V241.4H95.4ZM96.2 224.6H105.8V223H96.2V224.6ZM109.8 227V241.4H111.4V227H109.8ZM105.357 224.466L110.157 227.666L111.043 226.334L106.243 223.134L105.357 224.466ZM96.2 242.2C95.9878 242.2 95.7843 242.116 95.6343 241.966C95.4843 241.816 95.4 241.612 95.4 241.4H93.8C93.8 242.037 94.0528 242.647 94.5029 243.097C94.953 243.547 95.5635 243.8 96.2 243.8V242.2ZM109 243.8C109.636 243.8 110.247 243.547 110.697 243.097C111.147 242.647 111.4 242.037 111.4 241.4H109.8C109.8 241.612 109.716 241.816 109.566 241.966C109.416 242.116 109.212 242.2 109 242.2V243.8ZM95.4 225.4C95.4 225.188 95.4843 224.984 95.6343 224.834C95.7843 224.684 95.9878 224.6 96.2 224.6V223C95.5635 223 94.953 223.253 94.5029 223.703C94.0528 224.153 93.8 224.763 93.8 225.4H95.4ZM90.6 228.6V244.6H92.2V228.6H90.6ZM93 247H105.8V245.4H93V247ZM93 227.8H94.6V226.2H93V227.8ZM108.2 244.6V243H106.6V244.6H108.2ZM105.8 247C106.436 247 107.047 246.747 107.497 246.297C107.947 245.847 108.2 245.237 108.2 244.6H106.6C106.6 244.812 106.516 245.016 106.366 245.166C106.216 245.316 106.012 245.4 105.8 245.4V247ZM90.6 244.6C90.6 245.237 90.8528 245.847 91.3029 246.297C91.753 246.747 92.3635 247 93 247V245.4C92.7878 245.4 92.5843 245.316 92.4343 245.166C92.2843 245.016 92.2 244.812 92.2 244.6H90.6ZM92.2 228.6C92.2 228.388 92.2843 228.184 92.4343 228.034C92.5843 227.884 92.7878 227.8 93 227.8V226.2C92.3635 226.2 91.753 226.453 91.3029 226.903C90.8528 227.353 90.6 227.963 90.6 228.6H92.2Z" fill="#6E6B7B"/>
<path d="M100 0V135" stroke="#0D3DB0"/>
<defs>
<linearGradient id="paint0_linear_220_28" x1="100.5" y1="147" x2="100.5" y2="322" gradientUnits="userSpaceOnUse">
<stop offset="0.3125" stop-color="#0D3DB0"/>
<stop offset="1" stop-color="#0D3DB0" stop-opacity="0.35"/>
</linearGradient>
<linearGradient id="paint1_linear_220_28" x1="100" y1="159" x2="100" y2="309" gradientUnits="userSpaceOnUse">
<stop offset="0.0101723" stop-color="#0D3DB0"/>
<stop offset="1" stop-color="#0D3DB0" stop-opacity="0.35"/>
</linearGradient>
<linearGradient id="paint2_linear_220_28" x1="100.5" y1="197" x2="100.5" y2="272" gradientUnits="userSpaceOnUse">
<stop stop-color="#0D3DB0"/>
<stop offset="1" stop-color="#0D3DB0" stop-opacity="0.35"/>
</linearGradient>
</defs>
</svg>
