<svg width="200" height="335" viewBox="0 0 200 335" fill="none" xmlns="http://www.w3.org/2000/svg">
<circle cx="100" cy="100" r="99.5" fill="white" stroke="#3FD6DF" stroke-dasharray="13 13"/>
<path d="M188 100.5C188 148.825 148.825 188 100.5 188C52.1751 188 13 148.825 13 100.5C13 52.1751 52.1751 13 100.5 13C148.825 13 188 52.1751 188 100.5ZM16.1926 100.5C16.1926 147.062 53.9383 184.807 100.5 184.807C147.062 184.807 184.807 147.062 184.807 100.5C184.807 53.9383 147.062 16.1926 100.5 16.1926C53.9383 16.1926 16.1926 53.9383 16.1926 100.5Z" fill="url(#paint0_linear_220_63)"/>
<path d="M175 100C175 141.421 141.421 175 100 175C58.5786 175 25 141.421 25 100C25 58.5786 58.5786 25 100 25C141.421 25 175 58.5786 175 100ZM35.5944 100C35.5944 135.57 64.4298 164.406 100 164.406C135.57 164.406 164.406 135.57 164.406 100C164.406 64.4298 135.57 35.5944 100 35.5944C64.4298 35.5944 35.5944 64.4298 35.5944 100Z" fill="url(#paint1_linear_220_63)"/>
<path d="M138 100.5C138 121.211 121.211 138 100.5 138C79.7893 138 63 121.211 63 100.5C63 79.7893 79.7893 63 100.5 63C121.211 63 138 79.7893 138 100.5ZM66.8422 100.5C66.8422 119.089 81.9113 134.158 100.5 134.158C119.089 134.158 134.158 119.089 134.158 100.5C134.158 81.9113 119.089 66.8422 100.5 66.8422C81.9113 66.8422 66.8422 81.9113 66.8422 100.5Z" fill="url(#paint2_linear_220_63)"/>
<path d="M105.8 89.8L106.243 89.1344L106.042 89H105.8V89.8ZM110.6 93H111.4V92.5712L111.043 92.3344L110.6 93ZM109 108.2H96.2V109.8H109V108.2ZM95.4 107.4V91.4H93.8V107.4H95.4ZM96.2 90.6H105.8V89H96.2V90.6ZM109.8 93V107.4H111.4V93H109.8ZM105.357 90.4656L110.157 93.6656L111.043 92.3344L106.243 89.1344L105.357 90.4656ZM96.2 108.2C95.9878 108.2 95.7843 108.116 95.6343 107.966C95.4843 107.816 95.4 107.612 95.4 107.4H93.8C93.8 108.037 94.0528 108.647 94.5029 109.097C94.953 109.547 95.5635 109.8 96.2 109.8V108.2ZM109 109.8C109.636 109.8 110.247 109.547 110.697 109.097C111.147 108.647 111.4 108.037 111.4 107.4H109.8C109.8 107.612 109.716 107.816 109.566 107.966C109.416 108.116 109.212 108.2 109 108.2V109.8ZM95.4 91.4C95.4 91.1878 95.4843 90.9843 95.6343 90.8343C95.7843 90.6843 95.9878 90.6 96.2 90.6V89C95.5635 89 94.953 89.2529 94.5029 89.7029C94.0528 90.153 93.8 90.7635 93.8 91.4H95.4ZM90.6 94.6V110.6H92.2V94.6H90.6ZM93 113H105.8V111.4H93V113ZM93 93.8H94.6V92.2H93V93.8ZM108.2 110.6V109H106.6V110.6H108.2ZM105.8 113C106.436 113 107.047 112.747 107.497 112.297C107.947 111.847 108.2 111.237 108.2 110.6H106.6C106.6 110.812 106.516 111.016 106.366 111.166C106.216 111.316 106.012 111.4 105.8 111.4V113ZM90.6 110.6C90.6 111.237 90.8528 111.847 91.3029 112.297C91.753 112.747 92.3635 113 93 113V111.4C92.7878 111.4 92.5843 111.316 92.4343 111.166C92.2843 111.016 92.2 110.812 92.2 110.6H90.6ZM92.2 94.6C92.2 94.3878 92.2843 94.1843 92.4343 94.0343C92.5843 93.8843 92.7878 93.8 93 93.8V92.2C92.3635 92.2 91.753 92.4529 91.3029 92.9029C90.8528 93.353 90.6 93.9635 90.6 94.6H92.2Z" fill="#6E6B7B"/>
<path d="M100 200V335" stroke="#3FD6DF"/>
<defs>
<linearGradient id="paint0_linear_220_63" x1="100.5" y1="13" x2="100.5" y2="188" gradientUnits="userSpaceOnUse">
<stop offset="0.3125" stop-color="#3FD6DF"/>
<stop offset="1" stop-color="#3FD6DF" stop-opacity="0.35"/>
</linearGradient>
<linearGradient id="paint1_linear_220_63" x1="100" y1="25" x2="100" y2="175" gradientUnits="userSpaceOnUse">
<stop offset="0.0101723" stop-color="#3FD6DF"/>
<stop offset="1" stop-color="#3FD6DF" stop-opacity="0.35"/>
</linearGradient>
<linearGradient id="paint2_linear_220_63" x1="100.5" y1="63" x2="100.5" y2="138" gradientUnits="userSpaceOnUse">
<stop stop-color="#3FD6DF"/>
<stop offset="1" stop-color="#3FD6DF" stop-opacity="0.35"/>
</linearGradient>
</defs>
</svg>
