<svg width="200" height="335" viewBox="0 0 200 335" fill="none" xmlns="http://www.w3.org/2000/svg">
<circle cx="100" cy="235" r="99.5" fill="white" stroke="#C047CB" stroke-dasharray="13 13"/>
<path d="M188 235.5C188 283.825 148.825 323 100.5 323C52.1751 323 13 283.825 13 235.5C13 187.175 52.1751 148 100.5 148C148.825 148 188 187.175 188 235.5ZM16.1926 235.5C16.1926 282.062 53.9383 319.807 100.5 319.807C147.062 319.807 184.807 282.062 184.807 235.5C184.807 188.938 147.062 151.193 100.5 151.193C53.9383 151.193 16.1926 188.938 16.1926 235.5Z" fill="url(#paint0_linear_220_46)"/>
<path d="M175 235C175 276.421 141.421 310 100 310C58.5786 310 25 276.421 25 235C25 193.579 58.5786 160 100 160C141.421 160 175 193.579 175 235ZM35.5944 235C35.5944 270.57 64.4298 299.406 100 299.406C135.57 299.406 164.406 270.57 164.406 235C164.406 199.43 135.57 170.594 100 170.594C64.4298 170.594 35.5944 199.43 35.5944 235Z" fill="url(#paint1_linear_220_46)"/>
<path d="M138 235.5C138 256.211 121.211 273 100.5 273C79.7893 273 63 256.211 63 235.5C63 214.789 79.7893 198 100.5 198C121.211 198 138 214.789 138 235.5ZM66.8422 235.5C66.8422 254.089 81.9113 269.158 100.5 269.158C119.089 269.158 134.158 254.089 134.158 235.5C134.158 216.911 119.089 201.842 100.5 201.842C81.9113 201.842 66.8422 216.911 66.8422 235.5Z" fill="url(#paint2_linear_220_46)"/>
<path d="M105.8 224.8L106.243 224.134L106.042 224H105.8V224.8ZM110.6 228H111.4V227.571L111.043 227.334L110.6 228ZM109 243.2H96.2V244.8H109V243.2ZM95.4 242.4V226.4H93.8V242.4H95.4ZM96.2 225.6H105.8V224H96.2V225.6ZM109.8 228V242.4H111.4V228H109.8ZM105.357 225.466L110.157 228.666L111.043 227.334L106.243 224.134L105.357 225.466ZM96.2 243.2C95.9878 243.2 95.7843 243.116 95.6343 242.966C95.4843 242.816 95.4 242.612 95.4 242.4H93.8C93.8 243.037 94.0528 243.647 94.5029 244.097C94.953 244.547 95.5635 244.8 96.2 244.8V243.2ZM109 244.8C109.636 244.8 110.247 244.547 110.697 244.097C111.147 243.647 111.4 243.037 111.4 242.4H109.8C109.8 242.612 109.716 242.816 109.566 242.966C109.416 243.116 109.212 243.2 109 243.2V244.8ZM95.4 226.4C95.4 226.188 95.4843 225.984 95.6343 225.834C95.7843 225.684 95.9878 225.6 96.2 225.6V224C95.5635 224 94.953 224.253 94.5029 224.703C94.0528 225.153 93.8 225.763 93.8 226.4H95.4ZM90.6 229.6V245.6H92.2V229.6H90.6ZM93 248H105.8V246.4H93V248ZM93 228.8H94.6V227.2H93V228.8ZM108.2 245.6V244H106.6V245.6H108.2ZM105.8 248C106.436 248 107.047 247.747 107.497 247.297C107.947 246.847 108.2 246.237 108.2 245.6H106.6C106.6 245.812 106.516 246.016 106.366 246.166C106.216 246.316 106.012 246.4 105.8 246.4V248ZM90.6 245.6C90.6 246.237 90.8528 246.847 91.3029 247.297C91.753 247.747 92.3635 248 93 248V246.4C92.7878 246.4 92.5843 246.316 92.4343 246.166C92.2843 246.016 92.2 245.812 92.2 245.6H90.6ZM92.2 229.6C92.2 229.388 92.2843 229.184 92.4343 229.034C92.5843 228.884 92.7878 228.8 93 228.8V227.2C92.3635 227.2 91.753 227.453 91.3029 227.903C90.8528 228.353 90.6 228.963 90.6 229.6H92.2Z" fill="#6E6B7B"/>
<path d="M100 0V135" stroke="#C047CB"/>
<defs>
<linearGradient id="paint0_linear_220_46" x1="100.5" y1="148" x2="100.5" y2="323" gradientUnits="userSpaceOnUse">
<stop offset="0.3125" stop-color="#C047CB"/>
<stop offset="1" stop-color="#C047CB" stop-opacity="0.35"/>
</linearGradient>
<linearGradient id="paint1_linear_220_46" x1="100" y1="160" x2="100" y2="310" gradientUnits="userSpaceOnUse">
<stop offset="0.0101723" stop-color="#C047CB"/>
<stop offset="1" stop-color="#C047CB" stop-opacity="0.35"/>
</linearGradient>
<linearGradient id="paint2_linear_220_46" x1="100.5" y1="198" x2="100.5" y2="273" gradientUnits="userSpaceOnUse">
<stop stop-color="#C047CB"/>
<stop offset="1" stop-color="#C047CB" stop-opacity="0.35"/>
</linearGradient>
</defs>
</svg>
